<svg width="445" height="259" viewBox="0 0 445 259" fill="none" xmlns="http://www.w3.org/2000/svg">
<path d="M85.4169 107.389C83.7369 107.389 82.2249 107.101 80.8809 106.525C79.5369 105.925 78.4809 105.085 77.7129 104.005C76.9449 102.925 76.5609 101.665 76.5609 100.225H80.9529C81.0489 101.305 81.4689 102.193 82.2129 102.889C82.9809 103.585 84.0489 103.933 85.4169 103.933C86.8329 103.933 87.9369 103.597 88.7289 102.925C89.5209 102.229 89.9169 101.341 89.9169 100.261C89.9169 99.4212 89.6649 98.7372 89.1609 98.2092C88.6809 97.6812 88.0689 97.2732 87.3249 96.9852C86.6049 96.6972 85.5969 96.3852 84.3009 96.0492C82.6689 95.6172 81.3369 95.1852 80.3049 94.7532C79.2969 94.2972 78.4329 93.6012 77.7129 92.6652C76.9929 91.7292 76.6329 90.4812 76.6329 88.9212C76.6329 87.4812 76.9929 86.2212 77.7129 85.1412C78.4329 84.0612 79.4409 83.2332 80.7369 82.6572C82.0329 82.0812 83.5329 81.7932 85.2369 81.7932C87.6609 81.7932 89.6409 82.4052 91.1769 83.6292C92.7369 84.8292 93.6009 86.4852 93.7689 88.5972H89.2329C89.1609 87.6852 88.7289 86.9052 87.9369 86.2572C87.1449 85.6092 86.1009 85.2852 84.8049 85.2852C83.6289 85.2852 82.6689 85.5852 81.9249 86.1852C81.1809 86.7852 80.8089 87.6492 80.8089 88.7772C80.8089 89.5452 81.0369 90.1812 81.4929 90.6852C81.9729 91.1652 82.5729 91.5492 83.2929 91.8372C84.0129 92.1252 84.9969 92.4372 86.2449 92.7732C87.9009 93.2292 89.2449 93.6852 90.2769 94.1412C91.3329 94.5972 92.2209 95.3052 92.9409 96.2652C93.6849 97.2012 94.0569 98.4612 94.0569 100.045C94.0569 101.317 93.7089 102.517 93.0129 103.645C92.3409 104.773 91.3449 105.685 90.0249 106.381C88.7289 107.053 87.1929 107.389 85.4169 107.389ZM117.079 96.7332C117.079 97.4772 117.031 98.1492 116.935 98.7492H101.779C101.899 100.333 102.487 101.605 103.543 102.565C104.599 103.525 105.895 104.005 107.431 104.005C109.639 104.005 111.199 103.081 112.111 101.233H116.539C115.939 103.057 114.847 104.557 113.263 105.733C111.703 106.885 109.759 107.461 107.431 107.461C105.535 107.461 103.831 107.041 102.319 106.201C100.831 105.337 99.6555 104.137 98.7915 102.601C97.9515 101.041 97.5315 99.2412 97.5315 97.2012C97.5315 95.1612 97.9395 93.3732 98.7555 91.8372C99.5955 90.2772 100.759 89.0772 102.247 88.2372C103.759 87.3972 105.487 86.9772 107.431 86.9772C109.303 86.9772 110.971 87.3852 112.435 88.2012C113.899 89.0172 115.039 90.1692 115.855 91.6572C116.671 93.1212 117.079 94.8132 117.079 96.7332ZM112.795 95.4372C112.771 93.9252 112.231 92.7132 111.175 91.8012C110.119 90.8892 108.811 90.4332 107.251 90.4332C105.835 90.4332 104.623 90.8892 103.615 91.8012C102.607 92.6892 102.007 93.9012 101.815 95.4372H112.795ZM140.73 86.9772C142.242 86.9772 143.586 87.3012 144.762 87.9492C145.962 88.5972 146.898 89.5572 147.57 90.8292C148.266 92.1012 148.614 93.6372 148.614 95.4372V107.137H144.546V96.0492C144.546 94.2732 144.102 92.9172 143.214 91.9812C142.326 91.0212 141.114 90.5412 139.578 90.5412C138.042 90.5412 136.818 91.0212 135.906 91.9812C135.018 92.9172 134.574 94.2732 134.574 96.0492V107.137H130.47V80.4972H134.574V89.6052C135.27 88.7652 136.146 88.1172 137.202 87.6612C138.282 87.2052 139.458 86.9772 140.73 86.9772ZM171.813 87.3012V107.137H167.709V104.797C167.061 105.613 166.209 106.261 165.153 106.741C164.121 107.197 163.017 107.425 161.841 107.425C160.281 107.425 158.877 107.101 157.629 106.453C156.405 105.805 155.433 104.845 154.713 103.573C154.017 102.301 153.669 100.765 153.669 98.9652V87.3012H157.737V98.3532C157.737 100.129 158.181 101.497 159.069 102.457C159.957 103.393 161.169 103.861 162.705 103.861C164.241 103.861 165.453 103.393 166.341 102.457C167.253 101.497 167.709 100.129 167.709 98.3532V87.3012H171.813ZM181.332 90.1812C181.932 89.1732 182.724 88.3932 183.708 87.8412C184.716 87.2652 185.904 86.9772 187.272 86.9772V91.2252H186.228C184.62 91.2252 183.396 91.6332 182.556 92.4492C181.74 93.2652 181.332 94.6812 181.332 96.6972V107.137H177.228V87.3012H181.332V90.1812ZM218.576 96.7332C218.576 97.4772 218.528 98.1492 218.432 98.7492H203.276C203.396 100.333 203.984 101.605 205.04 102.565C206.096 103.525 207.392 104.005 208.928 104.005C211.136 104.005 212.696 103.081 213.608 101.233H218.036C217.436 103.057 216.344 104.557 214.76 105.733C213.2 106.885 211.256 107.461 208.928 107.461C207.032 107.461 205.328 107.041 203.816 106.201C202.328 105.337 201.152 104.137 200.288 102.601C199.448 101.041 199.028 99.2412 199.028 97.2012C199.028 95.1612 199.436 93.3732 200.252 91.8372C201.092 90.2772 202.256 89.0772 203.744 88.2372C205.256 87.3972 206.984 86.9772 208.928 86.9772C210.8 86.9772 212.468 87.3852 213.932 88.2012C215.396 89.0172 216.536 90.1692 217.352 91.6572C218.168 93.1212 218.576 94.8132 218.576 96.7332ZM214.292 95.4372C214.268 93.9252 213.728 92.7132 212.672 91.8012C211.616 90.8892 210.308 90.4332 208.748 90.4332C207.332 90.4332 206.12 90.8892 205.112 91.8012C204.104 92.6892 203.504 93.9012 203.312 95.4372H214.292ZM232.622 86.9772C234.182 86.9772 235.574 87.3012 236.798 87.9492C238.046 88.5972 239.018 89.5572 239.714 90.8292C240.41 92.1012 240.758 93.6372 240.758 95.4372V107.137H236.69V96.0492C236.69 94.2732 236.246 92.9172 235.358 91.9812C234.47 91.0212 233.258 90.5412 231.722 90.5412C230.186 90.5412 228.962 91.0212 228.05 91.9812C227.162 92.9172 226.718 94.2732 226.718 96.0492V107.137H222.614V87.3012H226.718V89.5692C227.39 88.7532 228.242 88.1172 229.274 87.6612C230.33 87.2052 231.446 86.9772 232.622 86.9772ZM253.841 97.2372L262.985 107.137H257.441L250.097 98.6052V107.137H245.993V80.4972H250.097V95.9772L257.297 87.3012H262.985L253.841 97.2372ZM284.107 96.7332C284.107 97.4772 284.059 98.1492 283.963 98.7492H268.807C268.927 100.333 269.515 101.605 270.571 102.565C271.627 103.525 272.923 104.005 274.459 104.005C276.667 104.005 278.227 103.081 279.139 101.233H283.567C282.967 103.057 281.875 104.557 280.291 105.733C278.731 106.885 276.787 107.461 274.459 107.461C272.563 107.461 270.859 107.041 269.347 106.201C267.859 105.337 266.683 104.137 265.819 102.601C264.979 101.041 264.559 99.2412 264.559 97.2012C264.559 95.1612 264.967 93.3732 265.783 91.8372C266.623 90.2772 267.787 89.0772 269.275 88.2372C270.787 87.3972 272.515 86.9772 274.459 86.9772C276.331 86.9772 277.999 87.3852 279.463 88.2012C280.927 89.0172 282.067 90.1692 282.883 91.6572C283.699 93.1212 284.107 94.8132 284.107 96.7332ZM279.823 95.4372C279.799 93.9252 279.259 92.7132 278.203 91.8012C277.147 90.8892 275.839 90.4332 274.279 90.4332C272.863 90.4332 271.651 90.8892 270.643 91.8012C269.635 92.6892 269.035 93.9012 268.843 95.4372H279.823ZM292.25 80.4972V107.137H288.146V80.4972H292.25ZM302.426 90.6492V101.629C302.426 102.373 302.594 102.913 302.93 103.249C303.29 103.561 303.89 103.717 304.73 103.717H307.25V107.137H304.01C302.162 107.137 300.746 106.705 299.762 105.841C298.778 104.977 298.286 103.573 298.286 101.629V90.6492H295.946V87.3012H298.286V82.3692H302.426V87.3012H307.25V90.6492H302.426ZM319.016 97.1292C319.016 95.1372 319.424 93.3732 320.24 91.8372C321.08 90.3012 322.208 89.1132 323.624 88.2732C325.064 87.4092 326.66 86.9772 328.412 86.9772C329.708 86.9772 330.98 87.2652 332.228 87.8412C333.5 88.3932 334.508 89.1372 335.252 90.0732V80.4972H339.392V107.137H335.252V104.149C334.58 105.109 333.644 105.901 332.444 106.525C331.268 107.149 329.912 107.461 328.376 107.461C326.648 107.461 325.064 107.029 323.624 106.165C322.208 105.277 321.08 104.053 320.24 102.493C319.424 100.909 319.016 99.1212 319.016 97.1292ZM335.252 97.2012C335.252 95.8332 334.964 94.6452 334.388 93.6372C333.836 92.6292 333.104 91.8612 332.192 91.3332C331.28 90.8052 330.296 90.5412 329.24 90.5412C328.184 90.5412 327.2 90.8052 326.288 91.3332C325.376 91.8372 324.632 92.5932 324.056 93.6012C323.504 94.5852 323.228 95.7612 323.228 97.1292C323.228 98.4972 323.504 99.6972 324.056 100.729C324.632 101.761 325.376 102.553 326.288 103.105C327.224 103.633 328.208 103.897 329.24 103.897C330.296 103.897 331.28 103.633 332.192 103.105C333.104 102.577 333.836 101.809 334.388 100.801C334.964 99.7692 335.252 98.5692 335.252 97.2012ZM362.746 87.3012V107.137H358.642V104.797C357.994 105.613 357.142 106.261 356.086 106.741C355.054 107.197 353.95 107.425 352.774 107.425C351.214 107.425 349.81 107.101 348.562 106.453C347.338 105.805 346.366 104.845 345.646 103.573C344.95 102.301 344.602 100.765 344.602 98.9652V87.3012H348.67V98.3532C348.67 100.129 349.114 101.497 350.002 102.457C350.89 103.393 352.102 103.861 353.638 103.861C355.174 103.861 356.386 103.393 357.274 102.457C358.186 101.497 358.642 100.129 358.642 98.3532V87.3012H362.746ZM81.2769 114.497V141.137H77.1729V114.497H81.2769ZM85.2971 131.129C85.2971 129.137 85.7051 127.373 86.5211 125.837C87.3611 124.301 88.4891 123.113 89.9051 122.273C91.3451 121.409 92.9291 120.977 94.6571 120.977C96.2171 120.977 97.5731 121.289 98.7251 121.913C99.9011 122.513 100.837 123.269 101.533 124.181V121.301H105.673V141.137H101.533V138.185C100.837 139.121 99.8891 139.901 98.6891 140.525C97.4891 141.149 96.1211 141.461 94.5851 141.461C92.8811 141.461 91.3211 141.029 89.9051 140.165C88.4891 139.277 87.3611 138.053 86.5211 136.493C85.7051 134.909 85.2971 133.121 85.2971 131.129ZM101.533 131.201C101.533 129.833 101.245 128.645 100.669 127.637C100.117 126.629 99.3851 125.861 98.4731 125.333C97.5611 124.805 96.5771 124.541 95.5211 124.541C94.4651 124.541 93.4811 124.805 92.5691 125.333C91.6571 125.837 90.9131 126.593 90.3371 127.601C89.7851 128.585 89.5091 129.761 89.5091 131.129C89.5091 132.497 89.7851 133.697 90.3371 134.729C90.9131 135.761 91.6571 136.553 92.5691 137.105C93.5051 137.633 94.4891 137.897 95.5211 137.897C96.5771 137.897 97.5611 137.633 98.4731 137.105C99.3851 136.577 100.117 135.809 100.669 134.801C101.245 133.769 101.533 132.569 101.533 131.201ZM93.0731 118.817C92.4731 118.817 91.9571 118.613 91.5251 118.205C91.1171 117.773 90.9131 117.257 90.9131 116.657C90.9131 116.057 91.1171 115.553 91.5251 115.145C91.9571 114.713 92.4731 114.497 93.0731 114.497C93.6731 114.497 94.1771 114.713 94.5851 115.145C95.0171 115.553 95.2331 116.057 95.2331 116.657C95.2331 117.257 95.0171 117.773 94.5851 118.205C94.1771 118.613 93.6731 118.817 93.0731 118.817ZM99.2651 118.817C98.6651 118.817 98.1491 118.613 97.7171 118.205C97.3091 117.773 97.1051 117.257 97.1051 116.657C97.1051 116.057 97.3091 115.553 97.7171 115.145C98.1491 114.713 98.6651 114.497 99.2651 114.497C99.8651 114.497 100.369 114.713 100.777 115.145C101.209 115.553 101.425 116.057 101.425 116.657C101.425 117.257 101.209 117.773 100.777 118.205C100.369 118.613 99.8651 118.817 99.2651 118.817ZM119.056 120.977C120.592 120.977 121.948 121.289 123.124 121.913C124.324 122.513 125.26 123.269 125.932 124.181V121.301H130.072V141.461C130.072 143.285 129.688 144.905 128.92 146.321C128.152 147.761 127.036 148.889 125.572 149.705C124.132 150.521 122.404 150.929 120.388 150.929C117.7 150.929 115.468 150.293 113.692 149.021C111.916 147.773 110.908 146.069 110.668 143.909H114.736C115.048 144.941 115.708 145.769 116.716 146.393C117.748 147.041 118.972 147.365 120.388 147.365C122.044 147.365 123.376 146.861 124.384 145.853C125.416 144.845 125.932 143.381 125.932 141.461V138.149C125.236 139.085 124.288 139.877 123.088 140.525C121.912 141.149 120.568 141.461 119.056 141.461C117.328 141.461 115.744 141.029 114.304 140.165C112.888 139.277 111.76 138.053 110.92 136.493C110.104 134.909 109.696 133.121 109.696 131.129C109.696 129.137 110.104 127.373 110.92 125.837C111.76 124.301 112.888 123.113 114.304 122.273C115.744 121.409 117.328 120.977 119.056 120.977ZM125.932 131.201C125.932 129.833 125.644 128.645 125.068 127.637C124.516 126.629 123.784 125.861 122.872 125.333C121.96 124.805 120.976 124.541 119.92 124.541C118.864 124.541 117.88 124.805 116.968 125.333C116.056 125.837 115.312 126.593 114.736 127.601C114.184 128.585 113.908 129.761 113.908 131.129C113.908 132.497 114.184 133.697 114.736 134.729C115.312 135.761 116.056 136.553 116.968 137.105C117.904 137.633 118.888 137.897 119.92 137.897C120.976 137.897 121.96 137.633 122.872 137.105C123.784 136.577 124.516 135.809 125.068 134.801C125.644 133.769 125.932 132.569 125.932 131.201ZM143.454 120.977C144.99 120.977 146.346 121.289 147.522 121.913C148.722 122.513 149.658 123.269 150.33 124.181V121.301H154.47V141.461C154.47 143.285 154.086 144.905 153.318 146.321C152.55 147.761 151.434 148.889 149.97 149.705C148.53 150.521 146.802 150.929 144.786 150.929C142.098 150.929 139.866 150.293 138.09 149.021C136.314 147.773 135.306 146.069 135.066 143.909H139.134C139.446 144.941 140.106 145.769 141.114 146.393C142.146 147.041 143.37 147.365 144.786 147.365C146.442 147.365 147.774 146.861 148.782 145.853C149.814 144.845 150.33 143.381 150.33 141.461V138.149C149.634 139.085 148.686 139.877 147.486 140.525C146.31 141.149 144.966 141.461 143.454 141.461C141.726 141.461 140.142 141.029 138.702 140.165C137.286 139.277 136.158 138.053 135.318 136.493C134.502 134.909 134.094 133.121 134.094 131.129C134.094 129.137 134.502 127.373 135.318 125.837C136.158 124.301 137.286 123.113 138.702 122.273C140.142 121.409 141.726 120.977 143.454 120.977ZM150.33 131.201C150.33 129.833 150.042 128.645 149.466 127.637C148.914 126.629 148.182 125.861 147.27 125.333C146.358 124.805 145.374 124.541 144.318 124.541C143.262 124.541 142.278 124.805 141.366 125.333C140.454 125.837 139.71 126.593 139.134 127.601C138.582 128.585 138.306 129.761 138.306 131.129C138.306 132.497 138.582 133.697 139.134 134.729C139.71 135.761 140.454 136.553 141.366 137.105C142.302 137.633 143.286 137.897 144.318 137.897C145.374 137.897 146.358 137.633 147.27 137.105C148.182 136.577 148.914 135.809 149.466 134.801C150.042 133.769 150.33 132.569 150.33 131.201ZM178.04 130.733C178.04 131.477 177.992 132.149 177.896 132.749H162.74C162.86 134.333 163.448 135.605 164.504 136.565C165.56 137.525 166.856 138.005 168.392 138.005C170.6 138.005 172.16 137.081 173.072 135.233H177.5C176.9 137.057 175.808 138.557 174.224 139.733C172.664 140.885 170.72 141.461 168.392 141.461C166.496 141.461 164.792 141.041 163.28 140.201C161.792 139.337 160.616 138.137 159.752 136.601C158.912 135.041 158.492 133.241 158.492 131.201C158.492 129.161 158.9 127.373 159.716 125.837C160.556 124.277 161.72 123.077 163.208 122.237C164.72 121.397 166.448 120.977 168.392 120.977C170.264 120.977 171.932 121.385 173.396 122.201C174.86 123.017 176 124.169 176.816 125.657C177.632 127.121 178.04 128.813 178.04 130.733ZM173.756 129.437C173.732 127.925 173.192 126.713 172.136 125.801C171.08 124.889 169.772 124.433 168.212 124.433C166.796 124.433 165.584 124.889 164.576 125.801C163.568 126.689 162.968 127.901 162.776 129.437H173.756ZM186.183 124.181C186.783 123.173 187.575 122.393 188.559 121.841C189.567 121.265 190.755 120.977 192.123 120.977V125.225H191.079C189.471 125.225 188.247 125.633 187.407 126.449C186.591 127.265 186.183 128.681 186.183 130.697V141.137H182.079V121.301H186.183V124.181ZM207.335 118.673C206.591 118.673 205.967 118.421 205.463 117.917C204.959 117.413 204.707 116.789 204.707 116.045C204.707 115.301 204.959 114.677 205.463 114.173C205.967 113.669 206.591 113.417 207.335 113.417C208.055 113.417 208.667 113.669 209.171 114.173C209.675 114.677 209.927 115.301 209.927 116.045C209.927 116.789 209.675 117.413 209.171 117.917C208.667 118.421 208.055 118.673 207.335 118.673ZM209.351 121.301V141.137H205.247V121.301H209.351ZM224.747 120.977C226.307 120.977 227.699 121.301 228.923 121.949C230.171 122.597 231.143 123.557 231.839 124.829C232.535 126.101 232.883 127.637 232.883 129.437V141.137H228.815V130.049C228.815 128.273 228.371 126.917 227.483 125.981C226.595 125.021 225.383 124.541 223.847 124.541C222.311 124.541 221.087 125.021 220.175 125.981C219.287 126.917 218.843 128.273 218.843 130.049V141.137H214.739V121.301H218.843V123.569C219.515 122.753 220.367 122.117 221.399 121.661C222.455 121.205 223.571 120.977 224.747 120.977ZM257.478 120.977C259.038 120.977 260.43 121.301 261.654 121.949C262.902 122.597 263.874 123.557 264.57 124.829C265.266 126.101 265.614 127.637 265.614 129.437V141.137H261.546V130.049C261.546 128.273 261.102 126.917 260.214 125.981C259.326 125.021 258.114 124.541 256.578 124.541C255.042 124.541 253.818 125.021 252.906 125.981C252.018 126.917 251.574 128.273 251.574 130.049V141.137H247.47V121.301H251.574V123.569C252.246 122.753 253.098 122.117 254.13 121.661C255.186 121.205 256.302 120.977 257.478 120.977ZM288.705 121.301L276.537 150.461H272.289L276.321 140.813L268.509 121.301H273.081L278.661 136.421L284.457 121.301H288.705ZM290.434 131.129C290.434 129.137 290.842 127.373 291.658 125.837C292.498 124.301 293.626 123.113 295.042 122.273C296.482 121.409 298.066 120.977 299.794 120.977C301.354 120.977 302.71 121.289 303.862 121.913C305.038 122.513 305.974 123.269 306.67 124.181V121.301H310.81V141.137H306.67V138.185C305.974 139.121 305.026 139.901 303.826 140.525C302.626 141.149 301.258 141.461 299.722 141.461C298.018 141.461 296.458 141.029 295.042 140.165C293.626 139.277 292.498 138.053 291.658 136.493C290.842 134.909 290.434 133.121 290.434 131.129ZM306.67 131.201C306.67 129.833 306.382 128.645 305.806 127.637C305.254 126.629 304.522 125.861 303.61 125.333C302.698 124.805 301.714 124.541 300.658 124.541C299.602 124.541 298.618 124.805 297.706 125.333C296.794 125.837 296.05 126.593 295.474 127.601C294.922 128.585 294.646 129.761 294.646 131.129C294.646 132.497 294.922 133.697 295.474 134.729C296.05 135.761 296.794 136.553 297.706 137.105C298.642 137.633 299.626 137.897 300.658 137.897C301.714 137.897 302.698 137.633 303.61 137.105C304.522 136.577 305.254 135.809 305.806 134.801C306.382 133.769 306.67 132.569 306.67 131.201ZM329.656 124.253C330.352 123.293 331.3 122.513 332.5 121.913C333.724 121.289 335.08 120.977 336.568 120.977C338.32 120.977 339.904 121.397 341.32 122.237C342.736 123.077 343.852 124.277 344.668 125.837C345.484 127.373 345.892 129.137 345.892 131.129C345.892 133.121 345.484 134.909 344.668 136.493C343.852 138.053 342.724 139.277 341.284 140.165C339.868 141.029 338.296 141.461 336.568 141.461C335.032 141.461 333.664 141.161 332.464 140.561C331.288 139.961 330.352 139.193 329.656 138.257V141.137H325.552V114.497H329.656V124.253ZM341.716 131.129C341.716 129.761 341.428 128.585 340.852 127.601C340.3 126.593 339.556 125.837 338.62 125.333C337.708 124.805 336.724 124.541 335.668 124.541C334.636 124.541 333.652 124.805 332.716 125.333C331.804 125.861 331.06 126.629 330.484 127.637C329.932 128.645 329.656 129.833 329.656 131.201C329.656 132.569 329.932 133.769 330.484 134.801C331.06 135.809 331.804 136.577 332.716 137.105C333.652 137.633 334.636 137.897 335.668 137.897C336.724 137.897 337.708 137.633 338.62 137.105C339.556 136.553 340.3 135.761 340.852 134.729C341.428 133.697 341.716 132.497 341.716 131.129ZM352.038 118.673C351.294 118.673 350.67 118.421 350.166 117.917C349.662 117.413 349.41 116.789 349.41 116.045C349.41 115.301 349.662 114.677 350.166 114.173C350.67 113.669 351.294 113.417 352.038 113.417C352.758 113.417 353.37 113.669 353.874 114.173C354.378 114.677 354.63 115.301 354.63 116.045C354.63 116.789 354.378 117.413 353.874 117.917C353.37 118.421 352.758 118.673 352.038 118.673ZM354.054 121.301V141.137H349.95V121.301H354.054ZM363.546 114.497V141.137H359.442V114.497H363.546ZM367.567 131.129C367.567 129.137 367.975 127.373 368.791 125.837C369.631 124.301 370.759 123.113 372.175 122.273C373.615 121.409 375.211 120.977 376.963 120.977C378.259 120.977 379.531 121.265 380.779 121.841C382.051 122.393 383.059 123.137 383.803 124.073V114.497H387.943V141.137H383.803V138.149C383.131 139.109 382.195 139.901 380.995 140.525C379.819 141.149 378.463 141.461 376.927 141.461C375.199 141.461 373.615 141.029 372.175 140.165C370.759 139.277 369.631 138.053 368.791 136.493C367.975 134.909 367.567 133.121 367.567 131.129ZM383.803 131.201C383.803 129.833 383.515 128.645 382.939 127.637C382.387 126.629 381.655 125.861 380.743 125.333C379.831 124.805 378.847 124.541 377.791 124.541C376.735 124.541 375.751 124.805 374.839 125.333C373.927 125.837 373.183 126.593 372.607 127.601C372.055 128.585 371.779 129.761 371.779 131.129C371.779 132.497 372.055 133.697 372.607 134.729C373.183 135.761 373.927 136.553 374.839 137.105C375.775 137.633 376.759 137.897 377.791 137.897C378.847 137.897 379.831 137.633 380.743 137.105C381.655 136.577 382.387 135.809 382.939 134.801C383.515 133.769 383.803 132.569 383.803 131.201ZM411.513 130.733C411.513 131.477 411.465 132.149 411.369 132.749H396.213C396.333 134.333 396.921 135.605 397.977 136.565C399.033 137.525 400.329 138.005 401.865 138.005C404.073 138.005 405.633 137.081 406.545 135.233H410.973C410.373 137.057 409.281 138.557 407.697 139.733C406.137 140.885 404.193 141.461 401.865 141.461C399.969 141.461 398.265 141.041 396.753 140.201C395.265 139.337 394.089 138.137 393.225 136.601C392.385 135.041 391.965 133.241 391.965 131.201C391.965 129.161 392.373 127.373 393.189 125.837C394.029 124.277 395.193 123.077 396.681 122.237C398.193 121.397 399.921 120.977 401.865 120.977C403.737 120.977 405.405 121.385 406.869 122.201C408.333 123.017 409.473 124.169 410.289 125.657C411.105 127.121 411.513 128.813 411.513 130.733ZM407.229 129.437C407.205 127.925 406.665 126.713 405.609 125.801C404.553 124.889 403.245 124.433 401.685 124.433C400.269 124.433 399.057 124.889 398.049 125.801C397.041 126.689 396.441 127.901 396.249 129.437H407.229ZM419.656 124.181C420.256 123.173 421.048 122.393 422.032 121.841C423.04 121.265 424.228 120.977 425.596 120.977V125.225H424.552C422.944 125.225 421.72 125.633 420.88 126.449C420.064 127.265 419.656 128.681 419.656 130.697V141.137H415.552V121.301H419.656V124.181ZM96.5049 176.137L93.4089 173.041C92.2089 174.241 90.9009 175.141 89.4849 175.741C88.0689 176.317 86.4849 176.605 84.7329 176.605C82.9569 176.605 81.3849 176.293 80.0169 175.669C78.6489 175.045 77.5929 174.157 76.8489 173.005C76.1049 171.829 75.7329 170.473 75.7329 168.937C75.7329 167.209 76.2249 165.673 77.2089 164.329C78.1929 162.961 79.6569 161.881 81.6009 161.089C80.9049 160.249 80.4129 159.469 80.1249 158.749C79.8369 158.005 79.6929 157.189 79.6929 156.301C79.6929 155.197 79.9689 154.213 80.5209 153.349C81.0969 152.485 81.9129 151.801 82.9689 151.297C84.0249 150.793 85.2489 150.541 86.6409 150.541C88.0569 150.541 89.2569 150.817 90.2409 151.369C91.2489 151.897 91.9929 152.629 92.4729 153.565C92.9769 154.501 93.1809 155.545 93.0849 156.697H88.9809C89.0049 155.809 88.7889 155.125 88.3329 154.645C87.8769 154.141 87.2529 153.889 86.4609 153.889C85.6689 153.889 85.0209 154.129 84.5169 154.609C84.0369 155.065 83.7969 155.629 83.7969 156.301C83.7969 156.949 83.9769 157.597 84.3369 158.245C84.7209 158.869 85.3809 159.685 86.3169 160.693L92.9409 167.281L95.4969 163.069H99.9249L96.6849 168.613L95.7849 170.089L101.869 176.137H96.5049ZM84.7329 173.113C86.9889 173.113 88.9809 172.189 90.7089 170.341L84.0849 163.681C81.2529 164.809 79.8369 166.513 79.8369 168.793C79.8369 170.017 80.2929 171.049 81.2049 171.889C82.1169 172.705 83.2929 173.113 84.7329 173.113ZM118.699 159.649V170.629C118.699 171.373 118.867 171.913 119.203 172.249C119.563 172.561 120.163 172.717 121.003 172.717H123.523V176.137H120.283C118.435 176.137 117.019 175.705 116.035 174.841C115.051 173.977 114.559 172.573 114.559 170.629V159.649H112.219V156.301H114.559V151.369H118.699V156.301H123.523V159.649H118.699ZM145.486 165.733C145.486 166.477 145.438 167.149 145.342 167.749H130.186C130.306 169.333 130.894 170.605 131.95 171.565C133.006 172.525 134.302 173.005 135.838 173.005C138.046 173.005 139.606 172.081 140.518 170.233H144.946C144.346 172.057 143.254 173.557 141.67 174.733C140.11 175.885 138.166 176.461 135.838 176.461C133.942 176.461 132.238 176.041 130.726 175.201C129.238 174.337 128.062 173.137 127.198 171.601C126.358 170.041 125.938 168.241 125.938 166.201C125.938 164.161 126.346 162.373 127.162 160.837C128.002 159.277 129.166 158.077 130.654 157.237C132.166 156.397 133.894 155.977 135.838 155.977C137.71 155.977 139.378 156.385 140.842 157.201C142.306 158.017 143.446 159.169 144.262 160.657C145.078 162.121 145.486 163.813 145.486 165.733ZM141.202 164.437C141.178 162.925 140.638 161.713 139.582 160.801C138.526 159.889 137.218 159.433 135.658 159.433C134.242 159.433 133.03 159.889 132.022 160.801C131.014 161.689 130.414 162.901 130.222 164.437H141.202ZM158.02 166.093L164.428 176.137H159.784L155.5 169.405L151.468 176.137H147.184L153.592 166.381L147.184 156.301H151.828L156.112 163.033L160.144 156.301H164.428L158.02 166.093ZM172.277 159.649V170.629C172.277 171.373 172.445 171.913 172.781 172.249C173.141 172.561 173.741 172.717 174.581 172.717H177.101V176.137H173.861C172.013 176.137 170.597 175.705 169.613 174.841C168.629 173.977 168.137 172.573 168.137 170.629V159.649H165.797V156.301H168.137V151.369H172.277V156.301H177.101V159.649H172.277Z" fill="#FFEBEB"/>
<mask id="path-2-inside-1" fill="white">
<path fill-rule="evenodd" clip-rule="evenodd" d="M64.9242 241.278C73.8491 241.131 82.2025 238.244 89.429 233.298C99.7517 247.819 114.919 256.876 131.727 256.6C148.968 256.316 164.251 246.27 174.216 230.753C184.896 241.272 198.073 247.388 212.266 247.155C228.965 246.88 244.047 237.866 255.18 223.362C261.576 227.72 268.573 230.071 275.885 229.951C291.861 229.688 306.055 217.678 315.598 198.869C323.564 212.318 336.618 220.986 351.271 220.745C370.729 220.425 386.993 204.495 392.129 182.884C395.095 183.587 398.17 183.932 401.32 183.88C424.995 183.491 443.92 160.809 443.591 133.218C443.406 117.68 437.154 103.899 427.498 94.8938C430.125 89.2466 431.559 82.943 431.48 76.3122C431.198 52.6633 411.778 33.8077 388.103 34.1971C383.829 34.2674 379.709 34.9601 375.828 36.1872C367.816 26.3214 357.375 20.4267 346.019 20.6134C335.674 20.7836 326.208 25.9739 318.728 34.5517C307.067 22.518 291.954 15.3683 275.517 15.6386C263.627 15.8342 252.522 19.8884 242.984 26.8151C232.348 12.4005 218.098 3.68247 202.53 3.93851C188.914 4.16243 176.47 11.2146 166.68 22.8531C160.205 15.8399 152.761 11.8948 144.88 12.0244C130.162 12.2665 117.308 26.6616 109.621 48.5443C103.471 43.9352 96.4488 41.3735 89.0165 41.4958C72.9076 41.7607 59.0238 54.5658 51.921 73.2772C50.4553 73.1426 48.9708 73.0859 47.4707 73.1106C21.6917 73.5345 1.07913 97.8423 1.43132 127.403C1.6058 142.048 6.89292 155.235 15.3186 164.763C14.0752 170.145 13.4419 175.826 13.5117 181.69C13.9093 215.06 36.9275 241.738 64.9242 241.278Z"/>
</mask>
<path d="M89.429 233.298L93.5081 230.388L90.673 226.4L86.618 229.175L89.429 233.298ZM174.216 230.753L177.732 227.183L173.35 222.867L170.013 228.065L174.216 230.753ZM255.18 223.362L258.008 219.225L254.106 216.567L251.219 220.328L255.18 223.362ZM315.598 198.869L319.903 196.307L315.271 188.486L311.142 196.623L315.598 198.869ZM392.129 182.884L393.303 178.018L388.426 176.862L387.265 181.748L392.129 182.884ZM427.498 94.8938L422.967 92.8017L421.436 96.0925L424.08 98.558L427.498 94.8938ZM375.828 36.1872L371.941 39.3503L374.075 41.9786L377.315 40.9544L375.828 36.1872ZM318.728 34.5517L315.13 38.0399L318.906 41.9373L322.489 37.8287L318.728 34.5517ZM242.984 26.8151L238.956 29.7959L241.892 33.7745L245.91 30.8566L242.984 26.8151ZM166.68 22.8531L163 26.2542L166.84 30.4134L170.5 26.0619L166.68 22.8531ZM109.621 48.5443L106.611 52.5506L112.068 56.6407L114.337 50.1827L109.621 48.5443ZM51.921 73.2772L51.4416 78.2566L55.2384 78.6053L56.5942 75.0335L51.921 73.2772ZM15.3186 164.763L20.1897 165.867L20.7687 163.361L19.0702 161.44L15.3186 164.763ZM86.618 229.175C80.1406 233.609 72.7336 236.149 64.8646 236.278L64.9837 246.277C74.9645 246.113 84.2643 242.879 92.2399 237.42L86.618 229.175ZM131.667 251.6C116.827 251.844 103.086 243.861 93.5081 230.388L85.3498 236.207C96.4176 251.776 113.012 261.908 131.786 261.599L131.667 251.6ZM170.013 228.065C160.755 242.482 146.888 251.35 131.667 251.6L131.786 261.599C151.049 261.283 167.748 250.059 178.419 233.442L170.013 228.065ZM212.206 242.155C199.585 242.363 187.642 236.943 177.732 227.183L170.7 234.324C182.15 245.601 196.56 252.414 212.325 252.155L212.206 242.155ZM251.219 220.328C240.792 233.913 227.036 241.911 212.206 242.155L212.325 252.155C230.893 251.849 247.303 241.818 259.141 226.395L251.219 220.328ZM275.825 224.951C269.689 225.052 263.684 223.092 258.008 219.225L252.353 227.498C259.469 232.347 267.457 235.09 275.944 234.95L275.825 224.951ZM311.142 196.623C301.996 214.648 289.13 224.732 275.825 224.951L275.944 234.95C294.592 234.644 310.114 220.709 320.055 201.116L311.142 196.623ZM351.211 215.745C338.719 215.95 327.165 208.567 319.903 196.307L311.294 201.432C319.964 216.07 334.516 226.021 351.33 225.744L351.211 215.745ZM387.265 181.748C382.499 201.803 367.748 215.473 351.211 215.745L351.33 225.744C373.71 225.376 391.487 207.187 396.993 184.019L387.265 181.748ZM401.26 178.881C398.532 178.925 395.871 178.626 393.303 178.018L390.955 187.749C394.319 188.547 397.808 188.939 401.379 188.88L401.26 178.881ZM438.592 133.301C438.897 158.875 421.484 178.548 401.26 178.881L401.379 188.88C428.505 188.434 448.943 162.743 448.591 133.136L438.592 133.301ZM424.08 98.558C432.687 106.586 438.422 119.048 438.592 133.301L448.591 133.136C448.39 116.313 441.621 101.213 430.917 91.2297L424.08 98.558ZM426.481 76.3944C426.551 82.2592 425.283 87.821 422.967 92.8017L432.03 96.986C434.966 90.6723 436.567 83.6269 436.479 76.23L426.481 76.3944ZM388.163 39.1968C409.082 38.8527 426.232 55.5122 426.481 76.3944L436.479 76.23C436.165 49.8144 414.474 28.7628 388.044 29.1975L388.163 39.1968ZM377.315 40.9544C380.739 39.8719 384.378 39.259 388.163 39.1968L388.044 29.1975C383.28 29.2758 378.679 30.0483 374.34 31.4201L377.315 40.9544ZM346.078 25.6131C355.526 25.4577 364.625 30.3413 371.941 39.3503L379.714 33.0242C371.006 22.3015 359.224 15.3956 345.959 15.6138L346.078 25.6131ZM322.489 37.8287C329.258 30.0665 337.462 25.7548 346.078 25.6131L345.959 15.6138C333.886 15.8124 323.158 21.8812 314.966 31.2747L322.489 37.8287ZM275.577 20.6383C290.437 20.3939 304.279 26.8415 315.13 38.0399L322.326 31.0635C309.856 18.1945 293.47 10.3427 275.458 10.639L275.577 20.6383ZM245.91 30.8566C254.689 24.4809 264.807 20.8154 275.577 20.6383L275.458 10.639C262.447 10.8529 250.355 15.2959 240.058 22.7736L245.91 30.8566ZM202.589 8.93816C216.092 8.71608 228.97 16.2614 238.956 29.7959L247.012 23.8343C235.727 8.53952 220.103 -1.35113 202.47 -1.06113L202.589 8.93816ZM170.5 26.0619C179.597 15.2464 190.765 9.13262 202.589 8.93816L202.47 -1.06113C187.063 -0.807748 173.342 7.18283 162.86 19.6442L170.5 26.0619ZM144.939 17.0241C150.97 16.9249 157.149 19.9171 163 26.2542L170.361 19.4519C163.261 11.7627 154.552 6.86475 144.82 7.0248L144.939 17.0241ZM114.337 50.1827C118.023 39.691 122.847 31.3027 128.24 25.595C133.616 19.9065 139.302 17.1168 144.939 17.0241L144.82 7.0248C135.74 7.17414 127.64 11.703 120.988 18.7433C114.353 25.7642 108.906 35.5148 104.905 46.9058L114.337 50.1827ZM89.0761 46.4954C95.2539 46.3938 101.219 48.5092 106.611 52.5506L112.631 44.5379C105.723 39.3612 97.6437 36.3533 88.957 36.4961L89.0761 46.4954ZM56.5942 75.0335C63.2949 57.3812 75.8097 46.7136 89.0761 46.4954L88.957 36.4961C70.0055 36.8078 54.7528 51.7503 47.2479 71.521L56.5942 75.0335ZM47.5303 78.1102C48.8499 78.0885 50.1545 78.1384 51.4416 78.2566L52.4005 68.2978C50.7561 68.1469 49.0917 68.0833 47.4112 68.1109L47.5303 78.1102ZM6.43065 127.321C6.10344 99.8569 25.1328 78.4786 47.5303 78.1102L47.4112 68.1109C18.2505 68.5905 -3.94517 95.8277 -3.568 127.486L6.43065 127.321ZM19.0702 161.44C11.4586 152.833 6.5913 140.805 6.43065 127.321L-3.568 127.486C-3.37969 143.291 2.32721 157.637 11.567 168.085L19.0702 161.44ZM18.5111 181.608C18.4459 176.142 19.0364 170.86 20.1897 165.867L10.4475 163.658C9.11399 169.431 8.43781 175.51 8.51242 181.772L18.5111 181.608ZM64.8646 236.278C40.415 236.68 18.886 213.074 18.5111 181.608L8.51242 181.772C8.93266 217.045 33.4399 246.796 64.9837 246.277L64.8646 236.278Z" fill="#C4C4C4" mask="url(#path-2-inside-1)"/>
</svg>
